<?xml version="1.0" encoding="utf-8"?>
<!-- Generator: Adobe Illustrator 23.1.0, SVG Export Plug-In . SVG Version: 6.00 Build 0)  -->
<svg version="1.1" id="Layer_1" xmlns="http://www.w3.org/2000/svg" xmlns:xlink="http://www.w3.org/1999/xlink" x="0px" y="0px"
	 viewBox="0 0 322.74 142.84" style="enable-background:new 0 0 322.74 142.84;" xml:space="preserve">
<style type="text/css">
	.st0{fill:#050101;}
	.st1{fill:#FFFFFF;}
	.st2{fill:#675E59;}
	.st3{fill:#181513;}
	.st4{fill:#171413;}
	.st5{fill:#F2A2A0;}
	.st6{fill:#070505;}
	.st7{fill:#060404;}
	.st8{fill:#2B2623;}
	.st9{fill:#12100F;}
	.st10{fill:#1C1817;}
	.st11{fill:#131110;}
	.st12{fill:#79706B;}
	.st13{fill:#3371B8;}
</style>
<g>
	<g>
		<path d="M21.37,142.84H0V0h21.37V142.84z"/>
	</g>
	<g>
		<path d="M47.51,77.8V2h77.96v75.8H47.51z M75.03,91.34v32.75H175.9v17.22H53.66V91.34H75.03z M103.94,19.37h-34.9v41.21h34.9
			V19.37z M172.06,106.4h-21.37V0h21.37V106.4z"/>
	</g>
	<g>
		<path d="M280,2v17.53h-31.21v46.13c0,12.81,3.13,24.17,9.38,34.06c6.25,9.89,15.27,18.53,27.06,25.91l-12.61,14.15
			c-6.77-4.51-13.25-9.94-19.45-16.3c-6.2-6.35-11.3-13.48-15.3-21.37c-4.1,8.1-9.41,15.51-15.91,22.22
			c-6.51,6.71-13.25,12.38-20.22,16.99l-12.61-14.15c5.84-3.69,11.1-7.79,15.76-12.3c4.66-4.51,8.66-9.35,11.99-14.53
			c3.33-5.17,5.87-10.69,7.61-16.53c1.74-5.84,2.61-11.89,2.61-18.14V19.53h-31.21V2H280z M322.74,142.84h-21.37V0h21.37V142.84z"/>
	</g>
</g>
</svg>
