<?xml version="1.0" encoding="utf-8"?>
<!-- Generator: Adobe Illustrator 23.1.0, SVG Export Plug-In . SVG Version: 6.00 Build 0)  -->
<svg version="1.1" id="Layer_1" xmlns="http://www.w3.org/2000/svg" xmlns:xlink="http://www.w3.org/1999/xlink" x="0px" y="0px"
	 viewBox="0 0 554.6 31.45" style="enable-background:new 0 0 554.6 31.45;" xml:space="preserve">
<style type="text/css">
	.st0{fill:#050101;}
	.st1{fill:#FFFFFF;}
	.st2{fill:#675E59;}
	.st3{fill:#181513;}
	.st4{fill:#171413;}
	.st5{fill:#F2A2A0;}
	.st6{fill:#070505;}
	.st7{fill:#060404;}
	.st8{fill:#2B2623;}
	.st9{fill:#12100F;}
	.st10{fill:#1C1817;}
	.st11{fill:#131110;}
	.st12{fill:#79706B;}
	.st13{fill:#3371B8;}
</style>
<g>
	<path d="M8.82,30.2V22c-1.39,0.04-2.77,0.08-4.15,0.1c-1.38,0.02-2.75,0.04-4.11,0.07L0,18.5c1.67,0,3.45-0.02,5.34-0.07
		c1.88-0.04,3.78-0.1,5.7-0.16c1.92-0.07,3.79-0.15,5.62-0.27c1.83-0.11,3.52-0.25,5.09-0.43l0.59,3.54
		c-1.45,0.15-2.92,0.28-4.39,0.38c-1.48,0.1-2.97,0.19-4.49,0.28v8.42H8.82z M14.57,15.86V4.13H1.88v-3.7h17.28v15.43H14.57z
		 M28.15,30.69h-4.59V0h4.59V30.69z"/>
	<path d="M49.43,30.03c-1.45-0.97-2.85-2.14-4.18-3.5c-1.33-1.37-2.43-2.9-3.29-4.59c-0.88,1.74-2.02,3.33-3.42,4.78
		c-1.4,1.44-2.85,2.66-4.34,3.65l-2.71-3.04c1.26-0.79,2.38-1.68,3.39-2.64c1-0.97,1.86-2.01,2.58-3.12
		c0.72-1.11,1.26-2.3,1.64-3.55c0.37-1.26,0.56-2.55,0.56-3.9V0.26h4.66v13.84c0,2.75,0.67,5.19,2.02,7.32
		c1.34,2.13,3.28,3.98,5.81,5.57L49.43,30.03z M58.88,11.86h4.53v3.77h-4.53v15.07h-4.59V0h4.59V11.86z"/>
	<path d="M65.78,0.43h15.46V7.9c0,2.75-0.33,5.26-0.97,7.52c-0.65,2.26-1.59,4.3-2.82,6.13c-1.23,1.83-2.74,3.45-4.51,4.87
		c-1.77,1.42-3.78,2.67-6.03,3.75l-2.31-3.37c1.67-0.79,3.24-1.75,4.71-2.86c1.46-1.11,2.73-2.39,3.8-3.83
		c1.07-1.44,1.91-3.07,2.53-4.89c0.62-1.82,0.93-3.84,0.93-6.06V4.16H65.78V0.43z M91.25,11.86h4.53v3.77h-4.53v15.07h-4.59V0h4.59
		V11.86z"/>
	<path d="M123.9,18.04c-1.32-0.33-2.62-0.91-3.9-1.75c-1.28-0.84-2.46-1.98-3.54-3.44c-0.97,1.43-2.13,2.65-3.49,3.65
		c-1.35,1-2.86,1.82-4.51,2.46l-2.15-3.17c1.85-0.77,3.41-1.67,4.69-2.71s2.15-2.29,2.61-3.77h-6.01V5.55h17.41v3.77h-5.91
		c0.26,0.71,0.63,1.34,1.11,1.92c0.47,0.57,1.01,1.09,1.62,1.54c0.61,0.45,1.26,0.84,1.95,1.17c0.69,0.33,1.4,0.61,2.13,0.83
		L123.9,18.04z M109.69,19.79h24.52v3.67h-9.19c0.42,0.62,0.98,1.16,1.69,1.62c0.7,0.46,1.53,0.86,2.48,1.19
		c0.95,0.33,1.99,0.61,3.12,0.83c1.13,0.22,2.33,0.4,3.58,0.53l-1.49,3.6c-2.78-0.33-5.24-0.9-7.4-1.7
		c-2.16-0.8-3.84-1.98-5.05-3.52c-0.59,0.77-1.32,1.44-2.18,2.02c-0.86,0.57-1.82,1.07-2.87,1.49s-2.21,0.77-3.45,1.06
		c-1.24,0.29-2.55,0.51-3.92,0.66l-1.49-3.6c1.26-0.13,2.45-0.31,3.58-0.53c1.13-0.22,2.17-0.5,3.11-0.83
		c0.94-0.33,1.76-0.73,2.48-1.19c0.72-0.46,1.28-1,1.7-1.62h-9.22V19.79z M121.85,0.1v3.77h-10.77V0.1H121.85z M133.54,6.9h4.53
		v3.77h-4.53v7.7h-4.59V0h4.59V6.9z"/>
	<path d="M158.56,16.72h-17.74V0.43h17.08v3.73h-12.46v8.86h13.12V16.72z M146.73,19.63v7.04h21.67v3.7h-26.27V19.63H146.73z
		 M162.98,6.67V0h4.59v22.86h-4.59V10.44h-6.28V6.67H162.98z"/>
	<path d="M182.41,8.59c0-1.34,0.23-2.54,0.68-3.6c0.45-1.06,1.07-1.95,1.87-2.68s1.72-1.28,2.78-1.65c1.06-0.37,2.19-0.56,3.4-0.56
		c1.21,0,2.35,0.19,3.42,0.56c1.07,0.38,2,0.92,2.79,1.64c0.79,0.71,1.42,1.6,1.87,2.66c0.45,1.06,0.68,2.27,0.68,3.63
		s-0.23,2.57-0.68,3.62c-0.45,1.05-1.07,1.93-1.87,2.64c-0.79,0.71-1.72,1.26-2.79,1.63s-2.21,0.56-3.42,0.56
		c-1.21,0-2.35-0.19-3.4-0.56c-1.06-0.38-1.98-0.93-2.78-1.65s-1.42-1.61-1.87-2.66C182.64,11.13,182.41,9.93,182.41,8.59z
		 M189.02,19.63v7.04h21.67v3.7h-26.27V19.63H189.02z M195.29,8.59c0-1.61-0.39-2.81-1.16-3.6c-0.77-0.79-1.77-1.19-3.01-1.19
		c-1.17,0-2.15,0.4-2.94,1.19S187,6.97,187,8.56c0,0.81,0.1,1.52,0.31,2.12c0.21,0.59,0.5,1.09,0.88,1.49
		c0.37,0.4,0.81,0.69,1.32,0.89c0.51,0.2,1.05,0.3,1.62,0.3c1.23,0,2.24-0.39,3.01-1.17C194.91,11.39,195.29,10.2,195.29,8.59z
		 M209.87,22.86h-4.59V0h4.59V22.86z"/>
	<path d="M230.18,0.43V4.2h-5.48v10.74c0,1.23,0.09,2.41,0.28,3.52c0.19,1.11,0.51,2.17,0.97,3.17c0.46,1,1.08,1.95,1.87,2.84
		c0.78,0.89,1.77,1.72,2.96,2.49l-2.28,3.07c-1.01-0.55-2.05-1.39-3.12-2.53c-1.07-1.13-2.01-2.53-2.82-4.18
		c-0.77,1.63-1.7,3.04-2.79,4.24c-1.09,1.2-2.25,2.15-3.49,2.86l-2.48-2.97c1.21-0.73,2.22-1.54,3.04-2.45
		c0.81-0.9,1.47-1.88,1.97-2.94s0.85-2.18,1.06-3.35c0.21-1.18,0.31-2.42,0.31-3.72V4.2h-5.52V0.43H230.18z M236.36,11.89h2.05V0
		h4.53v30.69h-4.53V15.63h-2.05v14.64h-4.49v-30h4.49V11.89z"/>
	<path d="M262.1,22.23c0,1.19-0.11,2.29-0.33,3.29c-0.22,1-0.59,1.87-1.12,2.59c-0.53,0.73-1.25,1.29-2.16,1.7
		c-0.91,0.41-2.06,0.61-3.45,0.61c-1.43,0-2.6-0.21-3.52-0.61c-0.91-0.41-1.64-0.97-2.16-1.7c-0.53-0.73-0.89-1.59-1.09-2.59
		s-0.3-2.1-0.3-3.29V8.29c0-1.19,0.1-2.29,0.3-3.29s0.56-1.87,1.09-2.59c0.53-0.73,1.25-1.29,2.16-1.7
		c0.91-0.41,2.09-0.61,3.52-0.61c1.39,0,2.54,0.2,3.45,0.61c0.91,0.41,1.64,0.97,2.16,1.7s0.9,1.59,1.12,2.59
		c0.22,1,0.33,2.1,0.33,3.29v3.6h2.48V0.26h4.49v30h-4.49V15.63h-2.48V22.23z M252.45,23.26c0,0.77,0.08,1.38,0.23,1.83
		c0.15,0.45,0.36,0.8,0.61,1.04c0.25,0.24,0.53,0.4,0.83,0.48c0.3,0.08,0.6,0.12,0.91,0.12c0.31,0,0.62-0.04,0.92-0.12
		c0.31-0.08,0.58-0.24,0.83-0.48c0.24-0.24,0.44-0.59,0.59-1.04c0.15-0.45,0.23-1.05,0.23-1.8V7.23c0-0.75-0.08-1.35-0.23-1.8
		c-0.15-0.45-0.35-0.8-0.59-1.04c-0.24-0.24-0.52-0.4-0.83-0.48c-0.31-0.08-0.62-0.12-0.92-0.12c-0.31,0-0.61,0.04-0.91,0.12
		c-0.3,0.08-0.57,0.24-0.83,0.48c-0.25,0.24-0.46,0.59-0.61,1.06c-0.15,0.46-0.23,1.07-0.23,1.82V23.26z M270.79,30.69V0h4.53v30.69
		H270.79z"/>
	<path d="M280.21,0.43h13.48v8.56c0,0.51-0.01,1-0.03,1.49c-0.02,0.48-0.06,0.96-0.1,1.42h3.24V0.26h4.49v30h-4.49V15.63h-3.87
		c-0.77,3.17-2.16,6-4.16,8.47c-2,2.48-4.7,4.53-8.09,6.16l-2.28-3.3c1.67-0.79,3.18-1.75,4.51-2.87c1.33-1.12,2.45-2.37,3.35-3.73
		c0.9-1.37,1.6-2.82,2.08-4.38s0.73-3.16,0.73-4.81V4.16h-8.85V0.43z M303.17,30.69V0h4.53v30.69H303.17z"/>
	<path d="M321.21,30.03V26.3h12.75v-5.48h4.63v5.48h12.82v3.73H321.21z M349.26,0.43v3.7h-21.15v11.53h21.31v3.7h-25.9V0.43H349.26z
		"/>
	<path d="M370.37,18.04c-1.32-0.33-2.62-0.91-3.9-1.75c-1.28-0.84-2.46-1.98-3.54-3.44c-0.97,1.43-2.13,2.65-3.49,3.65
		c-1.35,1-2.86,1.82-4.51,2.46l-2.15-3.17c1.85-0.77,3.41-1.67,4.69-2.71s2.15-2.29,2.61-3.77h-6.01V5.55h17.41v3.77h-5.91
		c0.26,0.71,0.63,1.34,1.11,1.92c0.47,0.57,1.01,1.09,1.62,1.54c0.61,0.45,1.26,0.84,1.95,1.17c0.69,0.33,1.4,0.61,2.13,0.83
		L370.37,18.04z M375.43,30.83v-6.84h-19.89v-3.7h24.48v10.54H375.43z M368.32,0.1v3.77h-10.77V0.1H368.32z M380.02,6.9h4.53v3.77
		h-4.53v8.06h-4.59V0h4.59V6.9z"/>
	<path d="M404.53,6.28v3.77h-18.07V6.28H404.53z M403.71,22.07c0,1.06-0.12,2.09-0.36,3.09c-0.24,1-0.68,1.89-1.31,2.68
		c-0.63,0.78-1.48,1.41-2.56,1.88c-1.08,0.47-2.46,0.71-4.13,0.71c-1.76,0-3.19-0.24-4.28-0.71c-1.09-0.47-1.94-1.1-2.54-1.88
		c-0.61-0.78-1.02-1.67-1.24-2.68c-0.22-1-0.33-2.03-0.33-3.09v-1.82c0-1.06,0.11-2.09,0.33-3.09c0.22-1,0.63-1.89,1.24-2.68
		c0.61-0.78,1.45-1.41,2.54-1.88c1.09-0.47,2.52-0.71,4.28-0.71c1.67,0,3.05,0.24,4.13,0.71c1.08,0.47,1.93,1.1,2.56,1.88
		c0.63,0.78,1.06,1.67,1.31,2.68c0.24,1,0.36,2.03,0.36,3.09V22.07z M401.06,0.1v3.77h-11.13V0.1H401.06z M391.58,22.37
		c0,1.61,0.32,2.74,0.96,3.39c0.64,0.65,1.59,0.97,2.84,0.97c1.32,0,2.27-0.33,2.86-0.99c0.58-0.66,0.88-1.77,0.88-3.34v-2.51
		c0-1.56-0.29-2.67-0.88-3.32c-0.58-0.65-1.54-0.97-2.86-0.97c-1.26,0-2.2,0.32-2.84,0.96c-0.64,0.64-0.96,1.76-0.96,3.37V22.37z
		 M412.4,11.86h4.53v3.77h-4.53v15.07h-4.59V0h4.59V11.86z"/>
	<path d="M435.52,16.95c-1.32-0.55-2.59-1.32-3.82-2.3c-1.22-0.98-2.36-2.3-3.42-3.95c-0.95,1.52-2.07,2.85-3.37,4
		c-1.3,1.14-2.75,2.1-4.36,2.87l-2.38-3.14c2.31-1.12,4.17-2.54,5.57-4.26c1.4-1.72,2.1-3.72,2.1-6.01v-3.9h4.66v3.77
		c0,1.23,0.21,2.35,0.63,3.35s0.97,1.9,1.65,2.69c0.68,0.79,1.46,1.49,2.35,2.08c0.88,0.59,1.78,1.09,2.71,1.49L435.52,16.95z
		 M447.81,30.92c-0.57-0.15-1.17-0.37-1.78-0.64c-0.62-0.28-1.23-0.6-1.83-0.96c-0.61-0.36-1.18-0.78-1.73-1.26
		c-0.55-0.47-1.02-0.99-1.42-1.54c-0.75,1.17-1.69,2.17-2.83,3.02s-2.24,1.48-3.32,1.9c-1.08-0.42-2.19-1.05-3.32-1.9
		c-1.13-0.85-2.09-1.86-2.86-3.02c-0.4,0.55-0.87,1.06-1.42,1.54c-0.55,0.47-1.12,0.89-1.72,1.26s-1.21,0.68-1.83,0.96
		c-0.63,0.27-1.22,0.49-1.77,0.64l-1.92-3.11c2.36-0.75,4.02-1.7,5.01-2.84c0.98-1.15,1.47-2.52,1.47-4.13v-1.72H431v1.69
		c0,1.34,0.34,2.55,1.01,3.62c0.67,1.07,1.64,2,2.89,2.79c1.26-0.79,2.22-1.72,2.89-2.79c0.67-1.07,1.01-2.27,1.01-3.62v-1.69h4.46
		v1.72c0,1.61,0.49,2.98,1.47,4.13c0.98,1.14,2.65,2.09,5.01,2.84L447.81,30.92z M441.83,1.95V0h4.59v17.74h-4.59V11.6h-5.62V7.83
		h5.62V5.71h-5.62V1.95H441.83z"/>
	<path d="M450.72,17.25v-3.73h30.13v3.73H450.72z M478.08,11.93c-2.84-0.35-5.3-0.95-7.37-1.8s-3.71-2.04-4.92-3.59
		c-1.19,1.54-2.83,2.74-4.92,3.59c-2.09,0.85-4.55,1.45-7.37,1.8l-1.55-3.5c1.65-0.15,3.19-0.41,4.61-0.78
		c1.42-0.36,2.64-0.83,3.67-1.4c1.02-0.57,1.83-1.26,2.41-2.05c0.58-0.79,0.88-1.7,0.88-2.71V0.2h4.59v1.29
		c0,1.01,0.29,1.92,0.86,2.71c0.57,0.79,1.37,1.48,2.4,2.05c1.02,0.57,2.24,1.04,3.65,1.4c1.41,0.36,2.94,0.62,4.59,0.78
		L478.08,11.93z M452.87,30.69V18.9h4.63v2.15h16.69V18.9h4.59v11.79H452.87z M474.18,24.71H457.5v2.31h16.69V24.71z"/>
	<path d="M502.86,30.1h-18.44V0.43h4.63V26.4h13.81V30.1z M511.18,30.69h-4.59V0h4.59V30.69z"/>
	<path d="M534.87,30.1h-18.4V0.43h17.74v3.73H521.1V26.4h13.78V30.1z M541.91,11.86h4.53v3.77h-4.53v15.07h-4.59V0h4.59V11.86z"/>
	<path d="M549.97,22.5l-0.23-21.41h4.86l-0.26,21.41H549.97z M550.01,30.1v-5.25h4.26v5.25H550.01z"/>
</g>
</svg>
