<?xml version="1.0" encoding="utf-8"?>
<!-- Generator: Adobe Illustrator 23.1.0, SVG Export Plug-In . SVG Version: 6.00 Build 0)  -->
<svg version="1.1" id="Layer_1" xmlns="http://www.w3.org/2000/svg" xmlns:xlink="http://www.w3.org/1999/xlink" x="0px" y="0px"
	 viewBox="0 0 117.46 164.09" style="enable-background:new 0 0 117.46 164.09;" xml:space="preserve">
<style type="text/css">
	.st0{fill:#050101;}
	.st1{fill:#FFFFFF;}
	.st2{fill:#675E59;}
	.st3{fill:#181513;}
	.st4{fill:#171413;}
	.st5{fill:#F2A2A0;}
	.st6{fill:#070505;}
	.st7{fill:#060404;}
	.st8{fill:#2B2623;}
	.st9{fill:#12100F;}
	.st10{fill:#1C1817;}
	.st11{fill:#131110;}
	.st12{fill:#79706B;}
	.st13{fill:#3371B8;}
</style>
<g>
	<path class="st13" d="M117.42,56.04c0.72,18.19-7.31,31.95-17.9,44c-15.15,17.24-27.26,36.04-34.71,57.78
		c-1.08,3.16-2.09,6.44-6.21,6.26c-3.58-0.15-4.47-3.07-5.48-5.99c-7.39-21.41-19.19-40.03-34.12-57.12
		C-3.23,75.51-5.67,50.21,10.21,26.04C24.18,4.77,51.45-4.97,76.16,2.48C99.94,9.65,117.07,32.35,117.42,56.04z M58.67,78.28
		c10.88,0.12,19.5-8.37,19.58-19.28c0.09-10.99-8.33-19.65-19.16-19.72c-10.81-0.06-19.74,8.62-19.86,19.3
		C39.11,69.29,47.87,78.16,58.67,78.28z"/>
</g>
</svg>
