<?xml version="1.0" encoding="utf-8"?>
<!-- Generator: Adobe Illustrator 23.1.0, SVG Export Plug-In . SVG Version: 6.00 Build 0)  -->
<svg version="1.1" id="Layer_1" xmlns="http://www.w3.org/2000/svg" xmlns:xlink="http://www.w3.org/1999/xlink" x="0px" y="0px"
	 viewBox="0 0 58.73 82.05" style="enable-background:new 0 0 58.73 82.05;" xml:space="preserve">
<style type="text/css">
	.st0{fill:#050101;}
	.st1{fill:#FFFFFF;}
	.st2{fill:#675E59;}
	.st3{fill:#181513;}
	.st4{fill:#171413;}
	.st5{fill:#F2A2A0;}
	.st6{fill:#070505;}
	.st7{fill:#060404;}
	.st8{fill:#2B2623;}
	.st9{fill:#12100F;}
	.st10{fill:#1C1817;}
	.st11{fill:#131110;}
	.st12{fill:#79706B;}
	.st13{fill:#3371B8;}
</style>
<g>
	<path class="st13" d="M58.71,28.02c0.36,9.09-3.66,15.98-8.95,22c-7.58,8.62-13.63,18.02-17.36,28.89
		c-0.54,1.58-1.05,3.22-3.1,3.13c-1.79-0.08-2.23-1.53-2.74-3c-3.7-10.71-9.59-20.01-17.06-28.56C-1.62,37.76-2.84,25.1,5.1,13.02
		C12.09,2.38,25.72-2.48,38.08,1.24C49.97,4.83,58.54,16.17,58.71,28.02z M29.33,39.14c5.44,0.06,9.75-4.18,9.79-9.64
		c0.04-5.49-4.17-9.83-9.58-9.86c-5.41-0.03-9.87,4.31-9.93,9.65C19.56,34.64,23.93,39.08,29.33,39.14z"/>
</g>
</svg>
