<?xml version="1.0" encoding="utf-8"?>
<!-- Generator: Adobe Illustrator 23.1.0, SVG Export Plug-In . SVG Version: 6.00 Build 0)  -->
<svg version="1.1" id="Layer_1" xmlns="http://www.w3.org/2000/svg" xmlns:xlink="http://www.w3.org/1999/xlink" x="0px" y="0px"
	 viewBox="0 0 11.64 5.32" style="enable-background:new 0 0 11.64 5.32;" xml:space="preserve">
<style type="text/css">
	.st0{fill:none;stroke:#000000;stroke-width:0.5;stroke-linecap:round;stroke-linejoin:round;stroke-miterlimit:10;}
	.st1{fill:none;stroke:#000000;stroke-width:0.25;stroke-linecap:round;stroke-linejoin:round;stroke-miterlimit:10;}
	.st2{fill:none;stroke:#000000;stroke-width:0.25;stroke-miterlimit:10;}
	.st3{fill:none;stroke:#000000;stroke-width:0.25;}
</style>
<g>
	<path class="st3" d="M0.31,4.35c0.28,0.17,0.7,0.32,1.14,0.32c0.65,0,1.03-0.34,1.03-0.84c0-0.46-0.26-0.72-0.93-0.98
		c-0.8-0.28-1.3-0.7-1.3-1.39c0-0.77,0.63-1.33,1.59-1.33c0.5,0,0.87,0.12,1.09,0.24L2.75,0.88C2.59,0.8,2.26,0.65,1.82,0.65
		c-0.67,0-0.93,0.4-0.93,0.74c0,0.46,0.3,0.69,0.98,0.95C2.7,2.66,3.12,3.06,3.12,3.78c0,0.76-0.56,1.42-1.72,1.42
		c-0.47,0-0.99-0.14-1.25-0.31L0.31,4.35z"/>
	<path class="st3" d="M3.99,5.12V0.21h0.69l1.58,2.49c0.37,0.58,0.65,1.09,0.88,1.6l0.01-0.01C7.1,3.63,7.08,3.03,7.08,2.26V0.21
		h0.6v4.92H7.04L5.48,2.63C5.13,2.08,4.81,1.52,4.56,0.99L4.54,0.99C4.57,1.61,4.59,2.2,4.59,3.02v2.1H3.99z"/>
	<path class="st3" d="M8.7,4.35c0.28,0.17,0.7,0.32,1.14,0.32c0.65,0,1.03-0.34,1.03-0.84c0-0.46-0.26-0.72-0.93-0.98
		c-0.8-0.28-1.3-0.7-1.3-1.39c0-0.77,0.63-1.33,1.59-1.33c0.5,0,0.87,0.12,1.09,0.24l-0.17,0.52c-0.16-0.09-0.49-0.23-0.93-0.23
		c-0.67,0-0.93,0.4-0.93,0.74c0,0.46,0.3,0.69,0.98,0.95c0.83,0.32,1.25,0.72,1.25,1.44c0,0.76-0.56,1.42-1.72,1.42
		c-0.47,0-0.99-0.14-1.25-0.31L8.7,4.35z"/>
</g>
</svg>
