<?xml version="1.0" encoding="utf-8"?>
<!-- Generator: Adobe Illustrator 23.1.0, SVG Export Plug-In . SVG Version: 6.00 Build 0)  -->
<svg version="1.1" id="Layer_1" xmlns="http://www.w3.org/2000/svg" xmlns:xlink="http://www.w3.org/1999/xlink" x="0px" y="0px"
	 viewBox="0 0 3.96 6.7" style="enable-background:new 0 0 3.96 6.7;" xml:space="preserve">
<style type="text/css">
	.st0{fill:none;stroke:#000000;stroke-width:0.5;stroke-linecap:round;stroke-linejoin:round;stroke-miterlimit:10;}
	.st1{fill:none;stroke:#000000;stroke-width:0.25;stroke-linecap:round;stroke-linejoin:round;stroke-miterlimit:10;}
	.st2{fill:none;stroke:#000000;stroke-width:0.25;stroke-miterlimit:10;}
	.st3{fill:none;stroke:#000000;stroke-width:0.25;}
</style>
<path class="st2" d="M1.92,1.14L1.63,0.44C1.53,0.18,1.23,0.06,0.97,0.16L0.52,0.35c-0.2,0.08-0.27,0.28-0.31,0.49
	c-0.17,0.57-0.12,1.81,0.41,3.1c0.56,1.37,1.47,2.36,2,2.56c0.13,0.08,0.3,0.1,0.45,0.04l0.44-0.18C3.78,6.25,3.9,5.95,3.8,5.69
	L3.51,4.99C3.4,4.73,3.1,4.61,2.84,4.71L2.76,4.75C2.35,4.38,2.13,3.89,1.9,3.33c-0.21-0.5-0.32-0.96-0.33-1.5L1.64,1.8
	C1.9,1.7,2.03,1.4,1.92,1.14z"/>
</svg>
