<?xml version="1.0" encoding="utf-8"?>
<!-- Generator: Adobe Illustrator 23.1.0, SVG Export Plug-In . SVG Version: 6.00 Build 0)  -->
<svg version="1.1" id="Layer_1" xmlns="http://www.w3.org/2000/svg" xmlns:xlink="http://www.w3.org/1999/xlink" x="0px" y="0px"
	 viewBox="0 0 10.9 4.35" style="enable-background:new 0 0 10.9 4.35;" xml:space="preserve">
<style type="text/css">
	.st0{fill:none;stroke:#000000;stroke-width:0.5;stroke-linecap:round;stroke-linejoin:round;stroke-miterlimit:10;}
	.st1{fill:none;stroke:#000000;stroke-width:0.25;stroke-linecap:round;stroke-linejoin:round;stroke-miterlimit:10;}
	.st2{fill:none;stroke:#000000;stroke-width:0.25;stroke-miterlimit:10;}
	.st3{fill:none;stroke:#000000;stroke-width:0.25;}
</style>
<g>
	<path class="st3" d="M0.37,3.41c0.25,0.14,0.68,0.28,1.1,0.28c0.61,0,0.89-0.26,0.89-0.58c0-0.34-0.24-0.53-0.86-0.72
		C0.68,2.14,0.29,1.75,0.29,1.28c0-0.63,0.6-1.15,1.59-1.15c0.47,0,0.87,0.11,1.13,0.24L2.8,0.89c-0.18-0.1-0.51-0.23-0.94-0.23
		c-0.49,0-0.77,0.24-0.77,0.54c0,0.32,0.28,0.47,0.88,0.67c0.8,0.26,1.21,0.6,1.21,1.18c0,0.69-0.63,1.18-1.72,1.18
		c-0.5,0-0.97-0.11-1.29-0.27L0.37,3.41z"/>
	<path class="st3" d="M3.53,1.28c0-0.41-0.01-0.74-0.04-1.06h0.74l0.04,0.52h0.02c0.23-0.37,0.79-0.62,1.53-0.61
		C6.46,0.14,7.37,0.66,7.45,1.8v2.34H6.61V1.88c0-0.63-0.28-1.16-1.07-1.16c-0.55,0-0.98,0.33-1.12,0.73
		C4.38,1.54,4.37,1.66,4.37,1.78v2.36H3.53V1.28z"/>
	<path class="st3" d="M7.97,3.41c0.25,0.14,0.68,0.28,1.1,0.28c0.61,0,0.89-0.26,0.89-0.58c0-0.34-0.24-0.53-0.86-0.72
		C8.29,2.14,7.9,1.75,7.9,1.28c0-0.63,0.6-1.15,1.59-1.15c0.47,0,0.87,0.11,1.13,0.24l-0.21,0.52c-0.18-0.1-0.51-0.23-0.94-0.23
		C8.97,0.66,8.7,0.9,8.7,1.2c0,0.32,0.28,0.47,0.88,0.67c0.8,0.26,1.21,0.6,1.21,1.18c0,0.69-0.63,1.18-1.72,1.18
		c-0.5,0-0.97-0.11-1.29-0.27L7.97,3.41z"/>
</g>
</svg>
