<?xml version="1.0" encoding="utf-8"?>
<!-- Generator: Adobe Illustrator 23.1.0, SVG Export Plug-In . SVG Version: 6.00 Build 0)  -->
<svg version="1.1" id="Layer_1" xmlns="http://www.w3.org/2000/svg" xmlns:xlink="http://www.w3.org/1999/xlink" x="0px" y="0px"
	 viewBox="0 0 9.6 5.85" style="enable-background:new 0 0 9.6 5.85;" xml:space="preserve">
<style type="text/css">
	.st0{fill:none;stroke:#000000;stroke-width:0.5;stroke-linecap:round;stroke-linejoin:round;stroke-miterlimit:10;}
	.st1{fill:none;stroke:#000000;stroke-width:0.25;stroke-linecap:round;stroke-linejoin:round;stroke-miterlimit:10;}
	.st2{fill:none;stroke:#000000;stroke-width:0.25;stroke-miterlimit:10;}
	.st3{fill:none;stroke:#000000;stroke-width:0.25;}
</style>
<g>
	<path d="M5.21,4.13C5.19,4.09,5.16,4.06,5.14,4.02c-0.23,0.21-0.5,0.39-0.81,0.52C4.27,4.57,4.24,4.62,4.25,4.68
		c0.06,0.4,0.3,0.72,0.5,0.92C4.07,5.56,3.79,5.06,3.7,4.85C3.68,4.8,3.64,4.77,3.59,4.77c-0.01,0-0.01,0-0.02,0
		C3.39,4.8,3.22,4.81,3.04,4.81L3,4.81C1.47,4.78,0.23,3.74,0.25,2.49c0.02-1.24,1.27-2.24,2.79-2.23l0.04,0
		c0.75,0.01,1.45,0.26,1.97,0.71c0.21,0.18,0.37,0.39,0.5,0.61c0.03-0.03,0.07-0.06,0.1-0.09c0.03-0.03,0.07-0.05,0.11-0.07
		C5.62,1.18,5.43,0.96,5.21,0.77C4.64,0.29,3.89,0.01,3.08,0L3.04,0C1.39-0.01,0.02,1.1,0,2.48c-0.02,1.4,1.32,2.55,3,2.58h0.04
		c0.16,0,0.32-0.01,0.48-0.03c0.14,0.27,0.51,0.81,1.3,0.82c0.08,0,0.18-0.01,0.27-0.02c0.05-0.01,0.09-0.04,0.11-0.1
		C5.2,5.69,5.18,5.63,5.14,5.6c-0.01,0-0.5-0.37-0.62-0.87C4.81,4.6,5.07,4.43,5.28,4.23C5.26,4.2,5.23,4.16,5.21,4.13z"/>
	<path d="M0.96,2.59c0,0.14,0.05,0.26,0.14,0.36c0.09,0.1,0.22,0.15,0.36,0.16c0,0,0.01,0,0.01,0c0.28,0,0.51-0.22,0.51-0.5
		c0-0.14-0.05-0.26-0.14-0.36c-0.09-0.1-0.22-0.15-0.36-0.16C1.19,2.09,0.96,2.31,0.96,2.59z M1.46,2.85
		c-0.07,0-0.13-0.03-0.18-0.08C1.24,2.73,1.21,2.66,1.21,2.6c0-0.14,0.12-0.25,0.26-0.25c0.07,0,0.13,0.03,0.18,0.08
		C1.7,2.47,1.72,2.54,1.72,2.61C1.72,2.74,1.6,2.86,1.46,2.85l0,0.13L1.46,2.85z"/>
	<path d="M2.48,2.62c0,0.28,0.22,0.51,0.5,0.52c0,0,0.01,0,0.01,0c0.28,0,0.51-0.22,0.51-0.5c0-0.28-0.22-0.51-0.5-0.52
		C2.72,2.12,2.49,2.34,2.48,2.62z M2.99,2.88c-0.07,0-0.13-0.03-0.18-0.08C2.76,2.76,2.74,2.69,2.74,2.62
		c0-0.14,0.12-0.25,0.26-0.25c0.14,0,0.25,0.12,0.25,0.26C3.24,2.77,3.13,2.88,2.99,2.88l0,0.13L2.99,2.88z"/>
	<path d="M4.9,2.66c0.02-0.08,0.04-0.15,0.07-0.23C4.88,2.27,4.72,2.15,4.52,2.15c-0.28,0-0.51,0.22-0.51,0.5
		c0,0.28,0.22,0.51,0.5,0.52c0,0,0.01,0,0.01,0c0.13,0,0.25-0.05,0.34-0.13c0,0,0,0,0-0.01c0-0.12,0.02-0.24,0.04-0.35
		C4.9,2.67,4.9,2.66,4.9,2.66z M4.51,2.91c-0.14,0-0.25-0.12-0.25-0.26c0-0.14,0.12-0.25,0.26-0.25c0.07,0,0.13,0.03,0.18,0.08
		c0.05,0.05,0.07,0.11,0.07,0.18C4.77,2.8,4.65,2.91,4.51,2.91l0,0.13L4.51,2.91z"/>
	<path d="M7.37,1.16c-0.57,0-1.09,0.18-1.49,0.47C5.84,1.66,5.8,1.68,5.77,1.71c-0.04,0.03-0.07,0.07-0.1,0.1
		C5.33,2.14,5.11,2.56,5.11,3.03c0,0.28,0.08,0.55,0.22,0.8c0.02,0.04,0.04,0.08,0.07,0.12c0.02,0.04,0.05,0.07,0.08,0.1
		C5.65,4.28,5.9,4.49,6.2,4.64c-0.1,0.34-0.44,0.57-0.45,0.58C5.71,5.25,5.69,5.3,5.7,5.35c0.01,0.05,0.05,0.09,0.1,0.1
		c0.08,0.01,0.15,0.02,0.21,0.02c0.57,0,0.85-0.36,0.97-0.57C7.1,4.91,7.22,4.92,7.34,4.92C8.58,4.93,9.6,4.09,9.6,3.06
		C9.61,2.02,8.6,1.17,7.37,1.16z M6.8,4.7C6.74,4.84,6.56,5.15,6.15,5.2c0.13-0.15,0.28-0.36,0.32-0.61
		C6.48,4.54,6.45,4.48,6.4,4.46C6.07,4.31,5.81,4.1,5.63,3.85C5.61,3.81,5.58,3.77,5.56,3.73C5.53,3.69,5.51,3.65,5.49,3.6
		C5.41,3.42,5.36,3.23,5.36,3.03c0-0.36,0.15-0.69,0.4-0.95c0.03-0.04,0.07-0.07,0.11-0.1c0.04-0.03,0.07-0.07,0.11-0.1
		c0.36-0.28,0.85-0.46,1.39-0.46c1.1,0.01,1.99,0.74,1.98,1.64c-0.01,0.89-0.9,1.62-2,1.61c-0.14,0-0.27-0.01-0.41-0.04
		C6.88,4.62,6.82,4.65,6.8,4.7z"/>
	<path d="M8.49,3.51C8.49,3.51,8.5,3.51,8.49,3.51c0.11,0,0.21-0.04,0.29-0.12C8.86,3.32,8.9,3.21,8.9,3.1c0-0.22-0.18-0.4-0.41-0.4
		c-0.11,0-0.21,0.04-0.29,0.12C8.13,2.9,8.09,3,8.09,3.11C8.09,3.33,8.27,3.51,8.49,3.51z M8.34,3.11c0-0.04,0.01-0.08,0.04-0.11
		C8.42,2.97,8.45,2.96,8.5,2.96c0.08,0,0.15,0.07,0.15,0.15c0,0.04-0.02,0.08-0.04,0.11C8.57,3.24,8.54,3.26,8.5,3.26l0,0.13l0-0.13
		C8.41,3.26,8.35,3.19,8.34,3.11z"/>
	<path d="M7.38,3.52C7.38,3.52,7.39,3.52,7.38,3.52c0.23,0,0.41-0.18,0.41-0.41c0-0.22-0.18-0.4-0.41-0.4c-0.22,0-0.4,0.18-0.4,0.41
		C6.98,3.34,7.16,3.52,7.38,3.52z M7.23,3.11c0-0.08,0.07-0.15,0.15-0.15c0.08,0,0.15,0.07,0.15,0.15c0,0.08-0.07,0.15-0.15,0.15
		l0,0.13l0-0.13C7.3,3.26,7.23,3.2,7.23,3.11z"/>
	<path d="M6.27,2.72c-0.08,0-0.15,0.03-0.21,0.07C6.03,2.8,6.01,2.82,5.99,2.84C5.95,2.87,5.92,2.91,5.9,2.96
		c0,0.02-0.01,0.03-0.01,0.05C5.88,3.04,5.87,3.08,5.87,3.12c0,0.07,0.02,0.13,0.06,0.19C6,3.44,6.12,3.52,6.27,3.52c0,0,0,0,0.01,0
		c0.22,0,0.4-0.18,0.4-0.41C6.68,2.9,6.5,2.72,6.27,2.72z M6.12,3.12c0-0.04,0.01-0.08,0.04-0.11c0.03-0.03,0.07-0.04,0.11-0.04
		c0.08,0,0.15,0.07,0.15,0.15c0,0.08-0.07,0.15-0.15,0.15l0,0.13l0-0.13C6.19,3.27,6.12,3.2,6.12,3.12z"/>
</g>
</svg>
