<?xml version="1.0" encoding="utf-8"?>
<!-- Generator: Adobe Illustrator 23.1.0, SVG Export Plug-In . SVG Version: 6.00 Build 0)  -->
<svg version="1.1" id="Layer_1" xmlns="http://www.w3.org/2000/svg" xmlns:xlink="http://www.w3.org/1999/xlink" x="0px" y="0px"
	 viewBox="0 0 94.35 93.48" style="enable-background:new 0 0 94.35 93.48;" xml:space="preserve">
<style type="text/css">
	.st0{fill:#797A7A;}
</style>
<g>
	<path class="st0" d="M1,93.48c-0.26,0-0.51-0.1-0.71-0.3C-0.1,92.8-0.1,92.16,0.3,91.77L92.65,0.29c0.39-0.39,1.03-0.39,1.41,0.01
		c0.39,0.39,0.39,1.03-0.01,1.41L1.7,93.19C1.51,93.39,1.25,93.48,1,93.48z"/>
</g>
<g>
	<path class="st0" d="M93.22,29.52C93.22,29.52,93.22,29.52,93.22,29.52c-0.56,0-1-0.45-1-1L92.35,2L65.83,1.87c-0.55,0-1-0.45-1-1
		c0-0.55,0.5-1,1-1L93.36,0c0.26,0,0.52,0.11,0.71,0.3c0.19,0.19,0.29,0.44,0.29,0.71l-0.13,27.52
		C94.22,29.07,93.77,29.52,93.22,29.52z"/>
</g>
</svg>
